<svg width="381" height="98" viewBox="0 0 381 98" fill="none" xmlns="http://www.w3.org/2000/svg">
<path fill-rule="evenodd" clip-rule="evenodd" d="M48.48 87.7917C69.6767 87.7917 86.86 70.424 86.86 49C86.86 27.576 69.6767 10.2083 48.48 10.2083C27.2833 10.2083 10.1 27.576 10.1 49C10.1 70.424 27.2833 87.7917 48.48 87.7917ZM48.48 98C69.5884 98 87.5462 84.3647 94.2015 65.3333H101V32.6667H94.2015C87.5462 13.6352 69.5884 0 48.48 0C21.7053 0 0 21.9381 0 49C0 76.0619 21.7053 98 48.48 98ZM21.7368 34.5895C25.1799 28.0764 30.8848 22.9681 37.7859 20.3363L36.3598 16.5159C28.5339 19.5002 22.074 25.2873 18.1735 32.6652L21.7368 34.5895ZM65.8092 74.1254C60.8992 77.5919 54.9274 79.625 48.48 79.625C44.4582 79.625 40.624 78.8341 37.1179 77.3996L35.6021 81.1846C39.5815 82.8129 43.9297 83.7083 48.48 83.7083C55.7815 83.7083 62.5562 81.4029 68.1227 77.4729L65.8092 74.1254ZM48.48 18.375C49.5956 18.375 50.5 17.4609 50.5 16.3333C50.5 15.2058 49.5956 14.2917 48.48 14.2917C47.3644 14.2917 46.46 15.2058 46.46 16.3333C46.46 17.4609 47.3644 18.375 48.48 18.375ZM48.48 20.4167C50.7113 20.4167 52.52 18.5885 52.52 16.3333C52.52 14.0782 50.7113 12.25 48.48 12.25C46.2487 12.25 44.44 14.0782 44.44 16.3333C44.44 18.5885 46.2487 20.4167 48.48 20.4167ZM42.0027 64.3911C44.3176 65.0193 46.7048 65.3333 49.1644 65.3333C52.0582 65.3333 54.5178 64.8846 56.5432 63.9873C58.5689 63.0597 60.0881 61.8333 61.1008 60.3078C62.1136 58.782 62.62 57.0768 62.62 55.1924C62.62 53.0086 62.0558 51.2885 60.9272 50.0321C59.8276 48.7458 58.5109 47.8183 56.9773 47.2501C55.4726 46.6517 53.5629 46.0984 51.2478 45.5898C49.1935 45.141 47.7031 44.7072 46.7771 44.2884C45.8512 43.8697 45.3882 43.2415 45.3882 42.4038C45.3882 41.5663 45.7789 40.8932 46.5602 40.3846C47.3415 39.8462 48.5856 39.5769 50.2929 39.5769C53.0131 39.5769 55.8199 40.3846 58.7135 41.9999L61.3613 35.4039C59.8855 34.5064 58.1782 33.8333 56.2394 33.3845C54.3006 32.906 52.3329 32.6667 50.3364 32.6667C47.4138 32.6667 44.9397 33.1154 42.9141 34.0127C40.9175 34.9103 39.4128 36.1367 38.4 37.6922C37.3872 39.218 36.881 40.9381 36.881 42.8525C36.881 45.0363 37.4306 46.7713 38.5303 48.0578C39.6298 49.344 40.9464 50.2863 42.4802 50.8847C44.0138 51.4531 45.9235 51.9915 48.2095 52.5C50.293 52.9786 51.7976 53.4423 52.7236 53.891C53.6787 54.3098 54.156 54.968 54.156 55.8653C54.156 57.5705 52.5067 58.4231 49.2078 58.4231C47.4716 58.4231 45.7065 58.1389 43.9124 57.5705C42.1184 57.0021 40.5414 56.2542 39.1813 55.3269L36.36 61.8782C37.8069 62.9252 39.6877 63.7629 42.0027 64.3911Z" fill="white"/>
<path d="M140.331 60.6565C135.605 60.6565 131.702 59.0864 128.621 55.9464C125.54 52.8063 124 48.9337 124 44.3282C124 39.693 125.54 35.8202 128.621 32.7101C131.702 29.57 135.605 28 140.331 28C143.173 28 145.79 28.6729 148.183 30.0186C150.605 31.3344 152.49 33.1287 153.836 35.4015L148.497 38.4967C147.719 37.0912 146.612 35.9996 145.177 35.2221C143.741 34.4147 142.126 34.0109 140.331 34.0109C137.28 34.0109 134.813 34.9679 132.928 36.8818C131.074 38.7958 130.147 41.2779 130.147 44.3282C130.147 47.3486 131.074 49.8158 132.928 51.7298C134.813 53.6437 137.28 54.6007 140.331 54.6007C142.126 54.6007 143.741 54.2119 145.177 53.4344C146.642 52.6269 147.749 51.5354 148.497 50.1597L153.836 53.2549C152.49 55.5278 150.62 57.337 148.228 58.6827C145.835 59.9985 143.203 60.6565 140.331 60.6565ZM175.398 37.5996V43.1619H168.398V60.0284H162.611V43.1619H155.522V37.5996H175.398ZM194.685 37.5996H198.992V60.0284H193.339V47.2888L182.796 60.0284H178.488V37.5996H184.142V50.3392L194.685 37.5996ZM217.351 36.9716C220.372 36.9716 222.944 38.1229 225.068 40.4256C227.221 42.6984 228.298 45.4945 228.298 48.814C228.298 52.1335 227.221 54.9446 225.068 57.2473C222.944 59.5201 220.372 60.6565 217.351 60.6565C214.21 60.6565 211.788 59.565 210.083 57.3818V69H204.295V37.5996H210.083V40.2462C211.788 38.0631 214.21 36.9716 217.351 36.9716ZM211.832 53.3895C212.999 54.5558 214.48 55.1389 216.274 55.1389C218.069 55.1389 219.549 54.5558 220.716 53.3895C221.912 52.1933 222.511 50.6681 222.511 48.814C222.511 46.9599 221.912 45.4497 220.716 44.2834C219.549 43.0871 218.069 42.4891 216.274 42.4891C214.48 42.4891 212.999 43.0871 211.832 44.2834C210.666 45.4497 210.083 46.9599 210.083 48.814C210.083 50.6681 210.666 52.1933 211.832 53.3895ZM253.063 60.0284H246.333L238.168 49.8457V60.0284H232.38V37.5996H238.168V47.4683L245.885 37.5996H252.794L243.776 48.6794L253.063 60.0284ZM271.38 37.5996H277.167V60.0284H271.38V57.3818C269.645 59.565 267.207 60.6565 264.066 60.6565C261.076 60.6565 258.503 59.5201 256.35 57.2473C254.226 54.9446 253.164 52.1335 253.164 48.814C253.164 45.4945 254.226 42.6984 256.35 40.4256C258.503 38.1229 261.076 36.9716 264.066 36.9716C267.207 36.9716 269.645 38.0631 271.38 40.2462V37.5996ZM260.701 53.3895C261.868 54.5558 263.349 55.1389 265.143 55.1389C266.938 55.1389 268.418 54.5558 269.585 53.3895C270.782 52.1933 271.38 50.6681 271.38 48.814C271.38 46.9599 270.782 45.4497 269.585 44.2834C268.418 43.0871 266.938 42.4891 265.143 42.4891C263.349 42.4891 261.868 43.0871 260.701 44.2834C259.535 45.4497 258.952 46.9599 258.952 48.814C258.952 50.6681 259.535 52.1933 260.701 53.3895ZM307.226 60.0284H300.092L288.876 45.3151V60.0284H282.685V28.628H288.876V42.4891L299.644 28.628H306.777L295.157 43.8797L307.226 60.0284ZM329.266 37.5996V60.0284H323.479V43.1619H317.287V50.6532C317.287 57.5912 314.131 60.7162 307.821 60.0284V54.6007C309.016 54.8997 309.929 54.7053 310.557 54.0175C311.186 53.2998 311.5 52.0737 311.5 50.3392V37.5996H329.266ZM350.708 37.5996H355.015V60.0284H349.362V47.2888L338.818 60.0284H334.511V37.5996H340.164V50.3392L350.708 37.5996ZM381 60.0284H374.27L366.105 49.8457V60.0284H360.317V37.5996H366.105V47.4683L373.822 37.5996H380.731L371.713 48.6794L381 60.0284Z" fill="white"/>
</svg>
