<svg width="1924" height="880" viewBox="0 0 1924 880" fill="none" xmlns="http://www.w3.org/2000/svg">
<g clip-path="url(#clip0_47_36)">
<path d="M0 0H1923.6V879.92H0V0Z" fill="#25A9E1"/>
<path opacity="0.101" fill-rule="evenodd" clip-rule="evenodd" d="M52.2305 879.92H266.36L829.63 674.92L835.711 587.56L52.2305 879.92Z" fill="white" fill-opacity="0.47"/>
<path opacity="0.332" fill-rule="evenodd" clip-rule="evenodd" d="M6.44035 719.58L0.360352 806.92L563.63 601.92L569.71 514.56L6.44035 719.58Z" fill="white" fill-opacity="0.18"/>
<path opacity="0.628" d="M1923.6 484.98L0 0.0799561H1923.6V484.98Z" fill="url(#paint0_linear_47_36)"/>
<path opacity="0.1" fill-rule="evenodd" clip-rule="evenodd" d="M954.96 564.979C1023.59 564.979 1079.22 508.8 1079.22 439.5C1079.22 370.2 1023.59 314.021 954.96 314.021C886.333 314.021 830.7 370.2 830.7 439.5C830.7 508.8 886.333 564.979 954.96 564.979ZM954.96 598C1023.3 598 1081.44 553.894 1102.99 492.333H1125V386.667H1102.99C1081.44 325.106 1023.3 281 954.96 281C868.274 281 798 351.963 798 439.5C798 527.037 868.274 598 954.96 598ZM868.376 392.886C879.523 371.819 897.993 355.295 920.337 346.782L915.719 334.424C890.382 344.077 869.467 362.797 856.839 386.662L868.376 392.886ZM1011.07 520.773C995.169 531.986 975.834 538.562 954.96 538.562C941.939 538.562 929.525 536.004 918.174 531.364L913.266 543.607C926.15 548.874 940.228 551.771 954.96 551.771C978.599 551.771 1000.53 544.313 1018.56 531.601L1011.07 520.773ZM954.96 340.437C958.572 340.437 961.5 337.481 961.5 333.833C961.5 330.186 958.572 327.229 954.96 327.229C951.348 327.229 948.42 330.186 948.42 333.833C948.42 337.481 951.348 340.437 954.96 340.437ZM954.96 347.042C962.184 347.042 968.04 341.128 968.04 333.833C968.04 326.539 962.184 320.625 954.96 320.625C947.736 320.625 941.88 326.539 941.88 333.833C941.88 341.128 947.736 347.042 954.96 347.042ZM933.989 489.286C941.484 491.318 949.213 492.333 957.176 492.333C966.545 492.333 974.508 490.882 981.066 487.979C987.624 484.979 992.543 481.012 995.821 476.077C999.1 471.142 1000.74 465.626 1000.74 459.53C1000.74 452.467 998.913 446.903 995.259 442.838C991.699 438.678 987.436 435.678 982.471 433.84C977.6 431.904 971.417 430.114 963.921 428.469C957.27 427.017 952.445 425.614 949.447 424.26C946.449 422.905 944.95 420.873 944.95 418.163C944.95 415.454 946.215 413.277 948.744 411.632C951.274 409.89 955.302 409.019 960.83 409.019C969.636 409.019 978.724 411.632 988.092 416.857L996.665 395.521C991.887 392.618 986.359 390.44 980.082 388.989C973.805 387.441 967.434 386.667 960.97 386.667C951.508 386.667 943.498 388.118 936.94 391.021C930.476 393.924 925.604 397.891 922.325 402.923C919.046 407.858 917.407 413.422 917.407 419.615C917.407 426.679 919.186 432.291 922.747 436.452C926.306 440.613 930.569 443.661 935.535 445.596C940.5 447.435 946.683 449.176 954.084 450.822C960.83 452.37 965.701 453.869 968.699 455.321C971.791 456.675 973.337 458.805 973.337 461.707C973.337 467.223 967.997 469.981 957.316 469.981C951.695 469.981 945.981 469.062 940.172 467.223C934.364 465.384 929.258 462.965 924.854 459.966L915.72 481.157C920.405 484.544 926.494 487.253 933.989 489.286Z" fill="white"/>
</g>
<defs>
<linearGradient id="paint0_linear_47_36" x1="1923.6" y1="502.921" x2="1762.68" y2="-291.797" gradientUnits="userSpaceOnUse">
<stop stop-color="white" stop-opacity="0.08"/>
<stop offset="1" stop-color="white" stop-opacity="0.078"/>
</linearGradient>
<clipPath id="clip0_47_36">
<rect width="1923.6" height="879.922" fill="white"/>
</clipPath>
</defs>
</svg>
