<svg width="20" height="25" viewBox="0 0 20 25" fill="none" xmlns="http://www.w3.org/2000/svg">
<path d="M16.3986 13.3036C16.3716 10.3729 18.8598 8.94705 18.9736 8.88067C17.5644 6.87746 15.3802 6.60375 14.6126 6.58193C12.7782 6.3937 10.9987 7.65219 10.0642 7.65219C9.11106 7.65219 7.67201 6.60012 6.12105 6.63103C4.12522 6.66104 2.25809 7.78768 1.23407 9.5372C-0.879271 13.1044 0.696873 18.3466 2.72161 21.2301C3.73445 22.6422 4.91795 24.219 6.46705 24.1635C7.98257 24.1026 8.54868 23.2215 10.3776 23.2215C12.1897 23.2215 12.7213 24.1635 14.3011 24.128C15.9276 24.1026 16.9517 22.7095 17.9291 21.2846C19.0995 19.666 19.5696 18.072 19.5882 17.9902C19.55 17.9774 16.4294 16.8163 16.3986 13.3036Z" fill="black"/>
<path d="M13.4142 4.6851C14.2293 3.69122 14.787 2.33907 14.6322 0.966919C13.4524 1.01784 11.977 1.76257 11.1274 2.73462C10.3757 3.5912 9.70421 4.99518 9.87768 6.3155C11.2029 6.41189 12.5637 5.66352 13.4142 4.6851Z" fill="black"/>
</svg>
