<svg width="75" height="540" viewBox="0 0 75 540" fill="none" xmlns="http://www.w3.org/2000/svg">
<rect x="35" y="74" width="5" height="160" fill="#5A5A5A"/>
<rect x="35" y="307" width="5" height="160" fill="#5A5A5A"/>
<rect width="75" height="75" rx="37.5" fill="#25A9E1"/>
<path d="M40.2383 51H36.6055V26.918L29.3203 29.5938V26.3125L39.6719 22.4258H40.2383V51Z" fill="white"/>
<rect y="233" width="75" height="75" rx="37.5" fill="#25A9E1"/>
<path d="M46.9961 284H28.3633V281.402L38.207 270.465C39.6654 268.811 40.668 267.47 41.2148 266.441C41.7747 265.4 42.0547 264.326 42.0547 263.219C42.0547 261.734 41.6055 260.517 40.707 259.566C39.8086 258.616 38.6107 258.141 37.1133 258.141C35.3164 258.141 33.9167 258.655 32.9141 259.684C31.9245 260.699 31.4297 262.118 31.4297 263.941H27.8164C27.8164 261.324 28.6562 259.208 30.3359 257.594C32.0286 255.979 34.2878 255.172 37.1133 255.172C39.7565 255.172 41.8464 255.868 43.3828 257.262C44.9193 258.642 45.6875 260.484 45.6875 262.789C45.6875 265.589 43.9036 268.922 40.3359 272.789L32.7188 281.051H46.9961V284Z" fill="white"/>
<rect y="465" width="75" height="75" rx="37.5" fill="#25A9E1"/>
<path d="M33.6172 500.023H36.332C38.0378 499.997 39.3789 499.548 40.3555 498.676C41.332 497.803 41.8203 496.625 41.8203 495.141C41.8203 491.807 40.1602 490.141 36.8398 490.141C35.2773 490.141 34.0273 490.59 33.0898 491.488C32.1654 492.374 31.7031 493.552 31.7031 495.023H28.0898C28.0898 492.771 28.9102 490.902 30.5508 489.418C32.2044 487.921 34.3008 487.172 36.8398 487.172C39.5221 487.172 41.625 487.882 43.1484 489.301C44.6719 490.72 45.4336 492.693 45.4336 495.219C45.4336 496.456 45.0299 497.654 44.2227 498.812C43.4284 499.971 42.3411 500.837 40.9609 501.41C42.5234 501.905 43.7279 502.725 44.5742 503.871C45.4336 505.017 45.8633 506.417 45.8633 508.07C45.8633 510.622 45.0299 512.647 43.3633 514.145C41.6966 515.642 39.5286 516.391 36.8594 516.391C34.1901 516.391 32.0156 515.668 30.3359 514.223C28.6693 512.777 27.8359 510.87 27.8359 508.5H31.4688C31.4688 509.997 31.957 511.195 32.9336 512.094C33.9102 512.992 35.2188 513.441 36.8594 513.441C38.6042 513.441 39.9388 512.986 40.8633 512.074C41.7878 511.163 42.25 509.854 42.25 508.148C42.25 506.495 41.7422 505.225 40.7266 504.34C39.7109 503.454 38.2461 502.999 36.332 502.973H33.6172V500.023Z" fill="white"/>
</svg>
