<svg width="164" height="188" viewBox="0 0 164 188" fill="none" xmlns="http://www.w3.org/2000/svg">
<path d="M152.286 188H11.7143C8.54167 188 5.79613 186.837 3.47768 184.512C1.15923 182.186 0 179.432 0 176.25V58.75C0 55.5677 1.15923 52.8138 3.47768 50.4883C5.79613 48.1628 8.54167 47 11.7143 47H152.286C155.58 47 158.356 48.1628 160.614 50.4883C162.871 52.8138 164 55.5677 164 58.75V176.25C164 179.555 162.871 182.339 160.614 184.604C158.356 186.868 155.58 188 152.286 188ZM82 70.5C69.0655 70.5 58.0223 75.0898 48.8705 84.2695C39.7188 93.4492 35.1429 104.526 35.1429 117.5C35.1429 130.474 39.7188 141.551 48.8705 150.73C58.0223 159.91 69.0655 164.5 82 164.5C94.9345 164.5 105.978 159.91 115.129 150.73C124.281 141.551 128.857 130.474 128.857 117.5C128.857 104.526 124.281 93.4492 115.129 84.2695C105.978 75.0898 94.9345 70.5 82 70.5ZM82 152.75C72.2381 152.75 63.9405 149.323 57.1071 142.469C50.2738 135.615 46.8571 127.292 46.8571 117.5C46.8571 107.708 50.2738 99.3854 57.1071 92.5312C63.9405 85.6771 72.2381 82.25 82 82.25C91.7619 82.25 100.06 85.6771 106.893 92.5312C113.726 99.3854 117.143 107.708 117.143 117.5C117.143 127.292 113.726 135.615 106.893 142.469C100.06 149.323 91.7619 152.75 82 152.75ZM152.286 35.25H11.7143C8.54167 35.25 5.79613 34.0872 3.47768 31.7617C1.15923 29.4362 0 26.6823 0 23.5V11.75C0 8.56771 1.15923 5.8138 3.47768 3.48828C5.79613 1.16276 8.54167 0 11.7143 0H152.286C155.58 0 158.356 1.16276 160.614 3.48828C162.871 5.8138 164 8.56771 164 11.75V23.5C164 26.8047 162.871 29.5892 160.614 31.8535C158.356 34.1178 155.58 35.25 152.286 35.25ZM41 11.75H29.2857C27.6994 11.75 26.3266 12.3314 25.1674 13.4941C24.0082 14.6569 23.4286 16.0339 23.4286 17.625C23.4286 19.2161 24.0082 20.5931 25.1674 21.7559C26.3266 22.9186 27.6994 23.5 29.2857 23.5H41C42.5863 23.5 43.9591 22.9186 45.1183 21.7559C46.2775 20.5931 46.8571 19.2161 46.8571 17.625C46.8571 16.0339 46.2775 14.6569 45.1183 13.4941C43.9591 12.3314 42.5863 11.75 41 11.75ZM64.4286 11.75C62.8423 11.75 61.4695 12.3314 60.3103 13.4941C59.151 14.6569 58.5714 16.0339 58.5714 17.625C58.5714 19.2161 59.151 20.5931 60.3103 21.7559C61.4695 22.9186 62.8423 23.5 64.4286 23.5C66.0149 23.5 67.3876 22.9186 68.5469 21.7559C69.7061 20.5931 70.2857 19.2161 70.2857 17.625C70.2857 16.0339 69.7061 14.6569 68.5469 13.4941C67.3876 12.3314 66.0149 11.75 64.4286 11.75ZM87.8571 11.75C86.2708 11.75 84.8981 12.3314 83.7388 13.4941C82.5796 14.6569 82 16.0339 82 17.625C82 19.2161 82.5796 20.5931 83.7388 21.7559C84.8981 22.9186 86.2708 23.5 87.8571 23.5C89.4435 23.5 90.8162 22.9186 91.9754 21.7559C93.1347 20.5931 93.7143 19.2161 93.7143 17.625C93.7143 16.0339 93.1347 14.6569 91.9754 13.4941C90.8162 12.3314 89.4435 11.75 87.8571 11.75Z" fill="#25A9E1"/>
</svg>
